G04 #@! TF.FileFunction,Legend,Top*
%FSLAX46Y46*%
G04 Gerber Fmt 4.6, Leading zero omitted, Abs format (unit mm)*
G04 Created by KiCad (PCBNEW 4.0.2-4+6225~38~ubuntu14.04.1-stable) date Thu 31 Mar 2016 02:11:22 CEST*
%MOMM*%
G01*
G04 APERTURE LIST*
%ADD10C,0.100000*%
%ADD11C,0.200000*%
%ADD12C,0.300000*%
%ADD13C,0.150000*%
G04 APERTURE END LIST*
D10*
D11*
X83092095Y-67903000D02*
X82987333Y-67850619D01*
X82830190Y-67850619D01*
X82673048Y-67903000D01*
X82568286Y-68007762D01*
X82515905Y-68112524D01*
X82463524Y-68322048D01*
X82463524Y-68479190D01*
X82515905Y-68688714D01*
X82568286Y-68793476D01*
X82673048Y-68898238D01*
X82830190Y-68950619D01*
X82934952Y-68950619D01*
X83092095Y-68898238D01*
X83144476Y-68845857D01*
X83144476Y-68479190D01*
X82934952Y-68479190D01*
X82751620Y-62262619D02*
X82856381Y-62262619D01*
X82961143Y-62315000D01*
X83013524Y-62367381D01*
X83065905Y-62472143D01*
X83118286Y-62681667D01*
X83118286Y-62943571D01*
X83065905Y-63153095D01*
X83013524Y-63257857D01*
X82961143Y-63310238D01*
X82856381Y-63362619D01*
X82751620Y-63362619D01*
X82646858Y-63310238D01*
X82594477Y-63257857D01*
X82542096Y-63153095D01*
X82489715Y-62943571D01*
X82489715Y-62681667D01*
X82542096Y-62472143D01*
X82594477Y-62367381D01*
X82646858Y-62315000D01*
X82751620Y-62262619D01*
X83013524Y-60597286D02*
X83013524Y-61330619D01*
X82751620Y-60178238D02*
X82489715Y-60963952D01*
X83170667Y-60963952D01*
X83144476Y-57266619D02*
X82777810Y-56742810D01*
X82515905Y-57266619D02*
X82515905Y-56166619D01*
X82934952Y-56166619D01*
X83039714Y-56219000D01*
X83092095Y-56271381D01*
X83144476Y-56376143D01*
X83144476Y-56533286D01*
X83092095Y-56638048D01*
X83039714Y-56690429D01*
X82934952Y-56742810D01*
X82515905Y-56742810D01*
X82489715Y-54134619D02*
X83118286Y-54134619D01*
X82804001Y-55234619D02*
X82804001Y-54134619D01*
D12*
X73873144Y-42491571D02*
X73816001Y-42548714D01*
X73644572Y-42605857D01*
X73530286Y-42605857D01*
X73358858Y-42548714D01*
X73244572Y-42434429D01*
X73187429Y-42320143D01*
X73130286Y-42091571D01*
X73130286Y-41920143D01*
X73187429Y-41691571D01*
X73244572Y-41577286D01*
X73358858Y-41463000D01*
X73530286Y-41405857D01*
X73644572Y-41405857D01*
X73816001Y-41463000D01*
X73873144Y-41520143D01*
X74901715Y-42605857D02*
X74901715Y-41977286D01*
X74844572Y-41863000D01*
X74730286Y-41805857D01*
X74501715Y-41805857D01*
X74387429Y-41863000D01*
X74901715Y-42548714D02*
X74787429Y-42605857D01*
X74501715Y-42605857D01*
X74387429Y-42548714D01*
X74330286Y-42434429D01*
X74330286Y-42320143D01*
X74387429Y-42205857D01*
X74501715Y-42148714D01*
X74787429Y-42148714D01*
X74901715Y-42091571D01*
X75473143Y-41805857D02*
X75473143Y-43005857D01*
X75473143Y-41863000D02*
X75587429Y-41805857D01*
X75816000Y-41805857D01*
X75930286Y-41863000D01*
X75987429Y-41920143D01*
X76044572Y-42034429D01*
X76044572Y-42377286D01*
X75987429Y-42491571D01*
X75930286Y-42548714D01*
X75816000Y-42605857D01*
X75587429Y-42605857D01*
X75473143Y-42548714D01*
X76501714Y-42548714D02*
X76673143Y-42605857D01*
X76958857Y-42605857D01*
X77073143Y-42548714D01*
X77130286Y-42491571D01*
X77187429Y-42377286D01*
X77187429Y-42263000D01*
X77130286Y-42148714D01*
X77073143Y-42091571D01*
X76958857Y-42034429D01*
X76730286Y-41977286D01*
X76616000Y-41920143D01*
X76558857Y-41863000D01*
X76501714Y-41748714D01*
X76501714Y-41634429D01*
X76558857Y-41520143D01*
X76616000Y-41463000D01*
X76730286Y-41405857D01*
X77016000Y-41405857D01*
X77187429Y-41463000D01*
X78158857Y-42548714D02*
X78044571Y-42605857D01*
X77816000Y-42605857D01*
X77701714Y-42548714D01*
X77644571Y-42434429D01*
X77644571Y-41977286D01*
X77701714Y-41863000D01*
X77816000Y-41805857D01*
X78044571Y-41805857D01*
X78158857Y-41863000D01*
X78216000Y-41977286D01*
X78216000Y-42091571D01*
X77644571Y-42205857D01*
X78730285Y-41805857D02*
X78730285Y-42605857D01*
X78730285Y-41920143D02*
X78787428Y-41863000D01*
X78901714Y-41805857D01*
X79073142Y-41805857D01*
X79187428Y-41863000D01*
X79244571Y-41977286D01*
X79244571Y-42605857D01*
X79758856Y-42548714D02*
X79873142Y-42605857D01*
X80101714Y-42605857D01*
X80215999Y-42548714D01*
X80273142Y-42434429D01*
X80273142Y-42377286D01*
X80215999Y-42263000D01*
X80101714Y-42205857D01*
X79930285Y-42205857D01*
X79815999Y-42148714D01*
X79758856Y-42034429D01*
X79758856Y-41977286D01*
X79815999Y-41863000D01*
X79930285Y-41805857D01*
X80101714Y-41805857D01*
X80215999Y-41863000D01*
X81244571Y-42548714D02*
X81130285Y-42605857D01*
X80901714Y-42605857D01*
X80787428Y-42548714D01*
X80730285Y-42434429D01*
X80730285Y-41977286D01*
X80787428Y-41863000D01*
X80901714Y-41805857D01*
X81130285Y-41805857D01*
X81244571Y-41863000D01*
X81301714Y-41977286D01*
X81301714Y-42091571D01*
X80730285Y-42205857D01*
X72730286Y-44585857D02*
X72730286Y-43385857D01*
X72730286Y-43843000D02*
X72844572Y-43785857D01*
X73073143Y-43785857D01*
X73187429Y-43843000D01*
X73244572Y-43900143D01*
X73301715Y-44014429D01*
X73301715Y-44357286D01*
X73244572Y-44471571D01*
X73187429Y-44528714D01*
X73073143Y-44585857D01*
X72844572Y-44585857D01*
X72730286Y-44528714D01*
X73701715Y-43785857D02*
X73987429Y-44585857D01*
X74273143Y-43785857D02*
X73987429Y-44585857D01*
X73873143Y-44871571D01*
X73816000Y-44928714D01*
X73701715Y-44985857D01*
X75587429Y-44528714D02*
X75758858Y-44585857D01*
X76044572Y-44585857D01*
X76158858Y-44528714D01*
X76216001Y-44471571D01*
X76273144Y-44357286D01*
X76273144Y-44243000D01*
X76216001Y-44128714D01*
X76158858Y-44071571D01*
X76044572Y-44014429D01*
X75816001Y-43957286D01*
X75701715Y-43900143D01*
X75644572Y-43843000D01*
X75587429Y-43728714D01*
X75587429Y-43614429D01*
X75644572Y-43500143D01*
X75701715Y-43443000D01*
X75816001Y-43385857D01*
X76101715Y-43385857D01*
X76273144Y-43443000D01*
X76730286Y-44243000D02*
X77301715Y-44243000D01*
X76616001Y-44585857D02*
X77016001Y-43385857D01*
X77416001Y-44585857D01*
X78044572Y-43385857D02*
X78158857Y-43385857D01*
X78273143Y-43443000D01*
X78330286Y-43500143D01*
X78387429Y-43614429D01*
X78444572Y-43843000D01*
X78444572Y-44128714D01*
X78387429Y-44357286D01*
X78330286Y-44471571D01*
X78273143Y-44528714D01*
X78158857Y-44585857D01*
X78044572Y-44585857D01*
X77930286Y-44528714D01*
X77873143Y-44471571D01*
X77816000Y-44357286D01*
X77758857Y-44128714D01*
X77758857Y-43843000D01*
X77816000Y-43614429D01*
X77873143Y-43500143D01*
X77930286Y-43443000D01*
X78044572Y-43385857D01*
X78901714Y-44243000D02*
X79473143Y-44243000D01*
X78787429Y-44585857D02*
X79187429Y-43385857D01*
X79587429Y-44585857D01*
X80216000Y-44014429D02*
X80216000Y-44585857D01*
X79816000Y-43385857D02*
X80216000Y-44014429D01*
X80616000Y-43385857D01*
X81015999Y-43385857D02*
X81015999Y-44357286D01*
X81073142Y-44471571D01*
X81130285Y-44528714D01*
X81244571Y-44585857D01*
X81473142Y-44585857D01*
X81587428Y-44528714D01*
X81644571Y-44471571D01*
X81701714Y-44357286D01*
X81701714Y-43385857D01*
D11*
X59192001Y-79549571D02*
X59134858Y-79606714D01*
X58963429Y-79663857D01*
X58849143Y-79663857D01*
X58677715Y-79606714D01*
X58563429Y-79492429D01*
X58506286Y-79378143D01*
X58449143Y-79149571D01*
X58449143Y-78978143D01*
X58506286Y-78749571D01*
X58563429Y-78635286D01*
X58677715Y-78521000D01*
X58849143Y-78463857D01*
X58963429Y-78463857D01*
X59134858Y-78521000D01*
X59192001Y-78578143D01*
X60220572Y-79663857D02*
X60220572Y-79035286D01*
X60163429Y-78921000D01*
X60049143Y-78863857D01*
X59820572Y-78863857D01*
X59706286Y-78921000D01*
X60220572Y-79606714D02*
X60106286Y-79663857D01*
X59820572Y-79663857D01*
X59706286Y-79606714D01*
X59649143Y-79492429D01*
X59649143Y-79378143D01*
X59706286Y-79263857D01*
X59820572Y-79206714D01*
X60106286Y-79206714D01*
X60220572Y-79149571D01*
X60792000Y-78863857D02*
X60792000Y-80063857D01*
X60792000Y-78921000D02*
X60906286Y-78863857D01*
X61134857Y-78863857D01*
X61249143Y-78921000D01*
X61306286Y-78978143D01*
X61363429Y-79092429D01*
X61363429Y-79435286D01*
X61306286Y-79549571D01*
X61249143Y-79606714D01*
X61134857Y-79663857D01*
X60906286Y-79663857D01*
X60792000Y-79606714D01*
X62734857Y-79606714D02*
X62906286Y-79663857D01*
X63192000Y-79663857D01*
X63306286Y-79606714D01*
X63363429Y-79549571D01*
X63420572Y-79435286D01*
X63420572Y-79321000D01*
X63363429Y-79206714D01*
X63306286Y-79149571D01*
X63192000Y-79092429D01*
X62963429Y-79035286D01*
X62849143Y-78978143D01*
X62792000Y-78921000D01*
X62734857Y-78806714D01*
X62734857Y-78692429D01*
X62792000Y-78578143D01*
X62849143Y-78521000D01*
X62963429Y-78463857D01*
X63249143Y-78463857D01*
X63420572Y-78521000D01*
X64392000Y-79606714D02*
X64277714Y-79663857D01*
X64049143Y-79663857D01*
X63934857Y-79606714D01*
X63877714Y-79492429D01*
X63877714Y-79035286D01*
X63934857Y-78921000D01*
X64049143Y-78863857D01*
X64277714Y-78863857D01*
X64392000Y-78921000D01*
X64449143Y-79035286D01*
X64449143Y-79149571D01*
X63877714Y-79263857D01*
X64963428Y-78863857D02*
X64963428Y-79663857D01*
X64963428Y-78978143D02*
X65020571Y-78921000D01*
X65134857Y-78863857D01*
X65306285Y-78863857D01*
X65420571Y-78921000D01*
X65477714Y-79035286D01*
X65477714Y-79663857D01*
X65991999Y-79606714D02*
X66106285Y-79663857D01*
X66334857Y-79663857D01*
X66449142Y-79606714D01*
X66506285Y-79492429D01*
X66506285Y-79435286D01*
X66449142Y-79321000D01*
X66334857Y-79263857D01*
X66163428Y-79263857D01*
X66049142Y-79206714D01*
X65991999Y-79092429D01*
X65991999Y-79035286D01*
X66049142Y-78921000D01*
X66163428Y-78863857D01*
X66334857Y-78863857D01*
X66449142Y-78921000D01*
X67477714Y-79606714D02*
X67363428Y-79663857D01*
X67134857Y-79663857D01*
X67020571Y-79606714D01*
X66963428Y-79492429D01*
X66963428Y-79035286D01*
X67020571Y-78921000D01*
X67134857Y-78863857D01*
X67363428Y-78863857D01*
X67477714Y-78921000D01*
X67534857Y-79035286D01*
X67534857Y-79149571D01*
X66963428Y-79263857D01*
D12*
X58304857Y-65671000D02*
X58162000Y-65599571D01*
X57947714Y-65599571D01*
X57733429Y-65671000D01*
X57590571Y-65813857D01*
X57519143Y-65956714D01*
X57447714Y-66242429D01*
X57447714Y-66456714D01*
X57519143Y-66742429D01*
X57590571Y-66885286D01*
X57733429Y-67028143D01*
X57947714Y-67099571D01*
X58090571Y-67099571D01*
X58304857Y-67028143D01*
X58376286Y-66956714D01*
X58376286Y-66456714D01*
X58090571Y-66456714D01*
X56261144Y-68647571D02*
X57189715Y-68647571D01*
X56689715Y-69219000D01*
X56904001Y-69219000D01*
X57046858Y-69290429D01*
X57118287Y-69361857D01*
X57189715Y-69504714D01*
X57189715Y-69861857D01*
X57118287Y-70004714D01*
X57046858Y-70076143D01*
X56904001Y-70147571D01*
X56475429Y-70147571D01*
X56332572Y-70076143D01*
X56261144Y-70004714D01*
X57618286Y-68647571D02*
X58118286Y-70147571D01*
X58618286Y-68647571D01*
X57372286Y-63060971D02*
X56515143Y-63060971D01*
X56943715Y-63060971D02*
X56943715Y-61560971D01*
X56800858Y-61775257D01*
X56658000Y-61918114D01*
X56515143Y-61989543D01*
X58658000Y-62060971D02*
X58658000Y-63060971D01*
X58300857Y-61489543D02*
X57943714Y-62560971D01*
X58872286Y-62560971D01*
X57600886Y-60419371D02*
X56743743Y-60419371D01*
X57172315Y-60419371D02*
X57172315Y-58919371D01*
X57029458Y-59133657D01*
X56886600Y-59276514D01*
X56743743Y-59347943D01*
X58886600Y-58919371D02*
X58600886Y-58919371D01*
X58458029Y-58990800D01*
X58386600Y-59062229D01*
X58243743Y-59276514D01*
X58172314Y-59562229D01*
X58172314Y-60133657D01*
X58243743Y-60276514D01*
X58315171Y-60347943D01*
X58458029Y-60419371D01*
X58743743Y-60419371D01*
X58886600Y-60347943D01*
X58958029Y-60276514D01*
X59029457Y-60133657D01*
X59029457Y-59776514D01*
X58958029Y-59633657D01*
X58886600Y-59562229D01*
X58743743Y-59490800D01*
X58458029Y-59490800D01*
X58315171Y-59562229D01*
X58243743Y-59633657D01*
X58172314Y-59776514D01*
X58762057Y-54622000D02*
X58619200Y-54550571D01*
X58404914Y-54550571D01*
X58190629Y-54622000D01*
X58047771Y-54764857D01*
X57976343Y-54907714D01*
X57904914Y-55193429D01*
X57904914Y-55407714D01*
X57976343Y-55693429D01*
X58047771Y-55836286D01*
X58190629Y-55979143D01*
X58404914Y-56050571D01*
X58547771Y-56050571D01*
X58762057Y-55979143D01*
X58833486Y-55907714D01*
X58833486Y-55407714D01*
X58547771Y-55407714D01*
X57772372Y-52154971D02*
X58915229Y-52583543D01*
X57772372Y-53012114D01*
X58839029Y-49767371D02*
X57696172Y-50195943D01*
X58839029Y-50624514D01*
X56667544Y-46955971D02*
X57596115Y-46955971D01*
X57096115Y-47527400D01*
X57310401Y-47527400D01*
X57453258Y-47598829D01*
X57524687Y-47670257D01*
X57596115Y-47813114D01*
X57596115Y-48170257D01*
X57524687Y-48313114D01*
X57453258Y-48384543D01*
X57310401Y-48455971D01*
X56881829Y-48455971D01*
X56738972Y-48384543D01*
X56667544Y-48313114D01*
X58024686Y-46955971D02*
X58524686Y-48455971D01*
X59024686Y-46955971D01*
X58826544Y-40885371D02*
X59755115Y-40885371D01*
X59255115Y-41456800D01*
X59469401Y-41456800D01*
X59612258Y-41528229D01*
X59683687Y-41599657D01*
X59755115Y-41742514D01*
X59755115Y-42099657D01*
X59683687Y-42242514D01*
X59612258Y-42313943D01*
X59469401Y-42385371D01*
X59040829Y-42385371D01*
X58897972Y-42313943D01*
X58826544Y-42242514D01*
X60183686Y-40885371D02*
X60683686Y-42385371D01*
X61183686Y-40885371D01*
X68287057Y-40982200D02*
X68144200Y-40910771D01*
X67929914Y-40910771D01*
X67715629Y-40982200D01*
X67572771Y-41125057D01*
X67501343Y-41267914D01*
X67429914Y-41553629D01*
X67429914Y-41767914D01*
X67501343Y-42053629D01*
X67572771Y-42196486D01*
X67715629Y-42339343D01*
X67929914Y-42410771D01*
X68072771Y-42410771D01*
X68287057Y-42339343D01*
X68358486Y-42267914D01*
X68358486Y-41767914D01*
X68072771Y-41767914D01*
D11*
X61932534Y-42244095D02*
X61932534Y-40944095D01*
X62242058Y-40944095D01*
X62427772Y-41006000D01*
X62551581Y-41129810D01*
X62613486Y-41253619D01*
X62675391Y-41501238D01*
X62675391Y-41686952D01*
X62613486Y-41934571D01*
X62551581Y-42058381D01*
X62427772Y-42182190D01*
X62242058Y-42244095D01*
X61932534Y-42244095D01*
X63232534Y-42244095D02*
X63232534Y-40944095D01*
X63232534Y-41563143D02*
X63975391Y-41563143D01*
X63975391Y-42244095D02*
X63975391Y-40944095D01*
X64408725Y-40944095D02*
X65151582Y-40944095D01*
X64780153Y-42244095D02*
X64780153Y-40944095D01*
D13*
X61595000Y-45085000D02*
X69215000Y-45085000D01*
X61595000Y-42545000D02*
X69215000Y-42545000D01*
X58775000Y-42265000D02*
X60325000Y-42265000D01*
X69215000Y-45085000D02*
X69215000Y-42545000D01*
X61595000Y-42545000D02*
X61595000Y-45085000D01*
X60325000Y-45365000D02*
X58775000Y-45365000D01*
X58775000Y-45365000D02*
X58775000Y-42265000D01*
X64542000Y-75234200D02*
X62992000Y-75234200D01*
X59182000Y-75514200D02*
X61722000Y-75514200D01*
X61722000Y-75514200D02*
X61722000Y-78054200D01*
X62992000Y-78334200D02*
X64542000Y-78334200D01*
X64542000Y-78334200D02*
X64542000Y-75234200D01*
X61722000Y-78054200D02*
X59182000Y-78054200D01*
X59182000Y-78054200D02*
X59182000Y-75514200D01*
X61875000Y-70765000D02*
X61875000Y-69215000D01*
X61595000Y-65405000D02*
X61595000Y-67945000D01*
X61595000Y-67945000D02*
X59055000Y-67945000D01*
X58775000Y-69215000D02*
X58775000Y-70765000D01*
X58775000Y-70765000D02*
X61875000Y-70765000D01*
X59055000Y-67945000D02*
X59055000Y-65405000D01*
X59055000Y-65405000D02*
X61595000Y-65405000D01*
X61595000Y-48895000D02*
X61595000Y-56515000D01*
X59055000Y-48895000D02*
X59055000Y-56515000D01*
X58775000Y-46075000D02*
X58775000Y-47625000D01*
X61595000Y-56515000D02*
X59055000Y-56515000D01*
X59055000Y-48895000D02*
X61595000Y-48895000D01*
X61875000Y-47625000D02*
X61875000Y-46075000D01*
X61875000Y-46075000D02*
X58775000Y-46075000D01*
X61875000Y-63780000D02*
X61875000Y-62230000D01*
X61595000Y-58420000D02*
X61595000Y-60960000D01*
X61595000Y-60960000D02*
X59055000Y-60960000D01*
X58775000Y-62230000D02*
X58775000Y-63780000D01*
X58775000Y-63780000D02*
X61875000Y-63780000D01*
X59055000Y-60960000D02*
X59055000Y-58420000D01*
X59055000Y-58420000D02*
X61595000Y-58420000D01*
X62723400Y-74058400D02*
X62723400Y-73058400D01*
X64073400Y-73058400D02*
X64073400Y-74058400D01*
X71346060Y-78328520D02*
X77848460Y-78328520D01*
X81346040Y-78328520D02*
X82097880Y-78328520D01*
X67096640Y-78328520D02*
X67848480Y-78328520D01*
X82148680Y-78328520D02*
X82148680Y-72029320D01*
X82146140Y-72029320D02*
X67144900Y-72029320D01*
X67096640Y-72029320D02*
X67096640Y-78328520D01*
X62008095Y-52062381D02*
X62008095Y-52871905D01*
X62055714Y-52967143D01*
X62103333Y-53014762D01*
X62198571Y-53062381D01*
X62389048Y-53062381D01*
X62484286Y-53014762D01*
X62531905Y-52967143D01*
X62579524Y-52871905D01*
X62579524Y-52062381D01*
X63579524Y-53062381D02*
X63008095Y-53062381D01*
X63293809Y-53062381D02*
X63293809Y-52062381D01*
X63198571Y-52205238D01*
X63103333Y-52300476D01*
X63008095Y-52348095D01*
X70556381Y-45648238D02*
X69556381Y-45648238D01*
X69556381Y-45410143D01*
X69604000Y-45267285D01*
X69699238Y-45172047D01*
X69794476Y-45124428D01*
X69984952Y-45076809D01*
X70127810Y-45076809D01*
X70318286Y-45124428D01*
X70413524Y-45172047D01*
X70508762Y-45267285D01*
X70556381Y-45410143D01*
X70556381Y-45648238D01*
X70556381Y-44648238D02*
X69556381Y-44648238D01*
X70032571Y-44648238D02*
X70032571Y-44076809D01*
X70556381Y-44076809D02*
X69556381Y-44076809D01*
X69556381Y-43743476D02*
X69556381Y-43172047D01*
X70556381Y-43457762D02*
X69556381Y-43457762D01*
X69651619Y-42886333D02*
X69604000Y-42838714D01*
X69556381Y-42743476D01*
X69556381Y-42505380D01*
X69604000Y-42410142D01*
X69651619Y-42362523D01*
X69746857Y-42314904D01*
X69842095Y-42314904D01*
X69984952Y-42362523D01*
X70556381Y-42933952D01*
X70556381Y-42314904D01*
X69651619Y-41933952D02*
X69604000Y-41886333D01*
X69556381Y-41791095D01*
X69556381Y-41552999D01*
X69604000Y-41457761D01*
X69651619Y-41410142D01*
X69746857Y-41362523D01*
X69842095Y-41362523D01*
X69984952Y-41410142D01*
X70556381Y-41981571D01*
X70556381Y-41362523D01*
X70556381Y-40410142D02*
X70556381Y-40981571D01*
X70556381Y-40695857D02*
X69556381Y-40695857D01*
X69699238Y-40791095D01*
X69794476Y-40886333D01*
X69842095Y-40981571D01*
X58697905Y-75001381D02*
X58697905Y-74001381D01*
X59078858Y-74001381D01*
X59174096Y-74049000D01*
X59221715Y-74096619D01*
X59269334Y-74191857D01*
X59269334Y-74334714D01*
X59221715Y-74429952D01*
X59174096Y-74477571D01*
X59078858Y-74525190D01*
X58697905Y-74525190D01*
X60221715Y-75001381D02*
X59650286Y-75001381D01*
X59936000Y-75001381D02*
X59936000Y-74001381D01*
X59840762Y-74144238D01*
X59745524Y-74239476D01*
X59650286Y-74287095D01*
X59536105Y-71419981D02*
X59536105Y-70419981D01*
X59917058Y-70419981D01*
X60012296Y-70467600D01*
X60059915Y-70515219D01*
X60107534Y-70610457D01*
X60107534Y-70753314D01*
X60059915Y-70848552D01*
X60012296Y-70896171D01*
X59917058Y-70943790D01*
X59536105Y-70943790D01*
X60488486Y-70515219D02*
X60536105Y-70467600D01*
X60631343Y-70419981D01*
X60869439Y-70419981D01*
X60964677Y-70467600D01*
X61012296Y-70515219D01*
X61059915Y-70610457D01*
X61059915Y-70705695D01*
X61012296Y-70848552D01*
X60440867Y-71419981D01*
X61059915Y-71419981D01*
X65877381Y-48363095D02*
X64877381Y-48363095D01*
X64877381Y-47982142D01*
X64925000Y-47886904D01*
X64972619Y-47839285D01*
X65067857Y-47791666D01*
X65210714Y-47791666D01*
X65305952Y-47839285D01*
X65353571Y-47886904D01*
X65401190Y-47982142D01*
X65401190Y-48363095D01*
X64877381Y-47458333D02*
X64877381Y-46839285D01*
X65258333Y-47172619D01*
X65258333Y-47029761D01*
X65305952Y-46934523D01*
X65353571Y-46886904D01*
X65448810Y-46839285D01*
X65686905Y-46839285D01*
X65782143Y-46886904D01*
X65829762Y-46934523D01*
X65877381Y-47029761D01*
X65877381Y-47315476D01*
X65829762Y-47410714D01*
X65782143Y-47458333D01*
X59739305Y-64460381D02*
X59739305Y-63460381D01*
X60120258Y-63460381D01*
X60215496Y-63508000D01*
X60263115Y-63555619D01*
X60310734Y-63650857D01*
X60310734Y-63793714D01*
X60263115Y-63888952D01*
X60215496Y-63936571D01*
X60120258Y-63984190D01*
X59739305Y-63984190D01*
X61167877Y-63793714D02*
X61167877Y-64460381D01*
X60929781Y-63412762D02*
X60691686Y-64127048D01*
X61310734Y-64127048D01*
X61301334Y-73477381D02*
X60968000Y-73001190D01*
X60729905Y-73477381D02*
X60729905Y-72477381D01*
X61110858Y-72477381D01*
X61206096Y-72525000D01*
X61253715Y-72572619D01*
X61301334Y-72667857D01*
X61301334Y-72810714D01*
X61253715Y-72905952D01*
X61206096Y-72953571D01*
X61110858Y-73001190D01*
X60729905Y-73001190D01*
X61634667Y-72477381D02*
X62253715Y-72477381D01*
X61920381Y-72858333D01*
X62063239Y-72858333D01*
X62158477Y-72905952D01*
X62206096Y-72953571D01*
X62253715Y-73048810D01*
X62253715Y-73286905D01*
X62206096Y-73382143D01*
X62158477Y-73429762D01*
X62063239Y-73477381D01*
X61777524Y-73477381D01*
X61682286Y-73429762D01*
X61634667Y-73382143D01*
X76542022Y-70901821D02*
X76208688Y-70425630D01*
X75970593Y-70901821D02*
X75970593Y-69901821D01*
X76351546Y-69901821D01*
X76446784Y-69949440D01*
X76494403Y-69997059D01*
X76542022Y-70092297D01*
X76542022Y-70235154D01*
X76494403Y-70330392D01*
X76446784Y-70378011D01*
X76351546Y-70425630D01*
X75970593Y-70425630D01*
X76827736Y-69901821D02*
X77161069Y-70901821D01*
X77494403Y-69901821D01*
X78351546Y-70901821D02*
X77780117Y-70901821D01*
X78065831Y-70901821D02*
X78065831Y-69901821D01*
X77970593Y-70044678D01*
X77875355Y-70139916D01*
X77780117Y-70187535D01*
X77700333Y-74036181D02*
X77700333Y-73036181D01*
X78081286Y-73036181D01*
X78176524Y-73083800D01*
X78224143Y-73131419D01*
X78271762Y-73226657D01*
X78271762Y-73369514D01*
X78224143Y-73464752D01*
X78176524Y-73512371D01*
X78081286Y-73559990D01*
X77700333Y-73559990D01*
X78890809Y-73036181D02*
X79081286Y-73036181D01*
X79176524Y-73083800D01*
X79271762Y-73179038D01*
X79319381Y-73369514D01*
X79319381Y-73702848D01*
X79271762Y-73893324D01*
X79176524Y-73988562D01*
X79081286Y-74036181D01*
X78890809Y-74036181D01*
X78795571Y-73988562D01*
X78700333Y-73893324D01*
X78652714Y-73702848D01*
X78652714Y-73369514D01*
X78700333Y-73179038D01*
X78795571Y-73083800D01*
X78890809Y-73036181D01*
X79605095Y-73036181D02*
X80176524Y-73036181D01*
X79890809Y-74036181D02*
X79890809Y-73036181D01*
M02*
