M48
INCH,TZ
T1C0.013
T2C0.040
T3C0.051
%
G90
G05
T1
X2.475Y-2.725
X2.478Y-2.677
X2.483Y-2.429
X2.518Y-2.82
X2.52Y-1.955
X2.58Y-2.105
X2.62Y-2.275
X2.623Y-2.423
X2.625Y-2.688
X2.635Y-2.122
X2.653Y-2.087
X2.765Y-2.55
X2.94Y-2.35
X2.94Y-2.55
X3.074Y-2.421
X3.105Y-2.65
X3.117Y-2.43
T2
X2.375Y-1.725
X2.375Y-1.875
X2.375Y-1.975
X2.375Y-2.075
X2.375Y-2.175
X2.375Y-2.35
X2.375Y-2.45
X2.375Y-2.625
X2.375Y-2.725
X2.38Y-3.023
X2.475Y-1.725
X2.48Y-3.023
X2.575Y-1.725
X2.675Y-1.725
T3
X2.74Y-3.072
X2.9369Y-2.9736
X3.1338Y-3.072
T0
M30
