G04 #@! TF.FileFunction,Copper,L1,Top,Signal*
%FSLAX46Y46*%
G04 Gerber Fmt 4.6, Leading zero omitted, Abs format (unit mm)*
G04 Created by KiCad (PCBNEW 4.0.2-4+6225~38~ubuntu14.04.1-stable) date Thu 31 Mar 2016 02:11:22 CEST*
%MOMM*%
G01*
G04 APERTURE LIST*
%ADD10C,0.100000*%
%ADD11O,1.100000X2.400000*%
%ADD12R,2.400000X1.100000*%
%ADD13O,2.400000X1.100000*%
%ADD14R,1.727200X2.032000*%
%ADD15O,1.727200X2.032000*%
%ADD16R,2.032000X2.032000*%
%ADD17O,2.032000X2.032000*%
%ADD18R,2.032000X1.727200*%
%ADD19O,2.032000X1.727200*%
%ADD20R,0.900000X0.500000*%
%ADD21C,2.499360*%
%ADD22C,0.685800*%
%ADD23C,0.250000*%
%ADD24C,0.254000*%
G04 APERTURE END LIST*
D10*
D11*
X67760000Y-70360000D03*
X69760000Y-70360000D03*
X71760000Y-70360000D03*
X73760000Y-70360000D03*
X75760000Y-70360000D03*
X77760000Y-70360000D03*
D12*
X64770000Y-54610000D03*
D13*
X64770000Y-56610000D03*
X64770000Y-58610000D03*
X64770000Y-60610000D03*
X64770000Y-62610000D03*
X64770000Y-64610000D03*
X64770000Y-66610000D03*
X64770000Y-68610000D03*
X80770000Y-68610000D03*
X80770000Y-66610000D03*
X80770000Y-64610000D03*
X80770000Y-62610000D03*
X80770000Y-60610000D03*
X80770000Y-58610000D03*
X80770000Y-56610000D03*
X80770000Y-54610000D03*
D14*
X60325000Y-43815000D03*
D15*
X62865000Y-43815000D03*
X65405000Y-43815000D03*
X67945000Y-43815000D03*
D16*
X62992000Y-76784200D03*
D17*
X60452000Y-76784200D03*
D16*
X60325000Y-69215000D03*
D17*
X60325000Y-66675000D03*
D18*
X60325000Y-47625000D03*
D19*
X60325000Y-50165000D03*
X60325000Y-52705000D03*
X60325000Y-55245000D03*
D16*
X60325000Y-62230000D03*
D17*
X60325000Y-59690000D03*
D20*
X63398400Y-72808400D03*
X63398400Y-74308400D03*
D21*
X74597260Y-75529440D03*
X79598520Y-78028800D03*
X69596000Y-78028800D03*
D22*
X65532000Y-53467000D03*
X64008000Y-49657000D03*
X70231000Y-64770000D03*
X62865000Y-69215000D03*
X78867000Y-67310000D03*
X74676000Y-64770000D03*
X74676000Y-59690000D03*
X67386200Y-53009800D03*
X66929000Y-53898800D03*
X66548000Y-57785000D03*
X62941200Y-67995800D03*
X63957200Y-71628000D03*
X63068200Y-61696600D03*
X66675000Y-68275200D03*
X66624200Y-61544200D03*
X78079600Y-61493400D03*
X79171800Y-61722000D03*
D23*
X65532000Y-53848000D02*
X65532000Y-53467000D01*
X65532000Y-53848000D02*
X64770000Y-54610000D01*
D24*
X64770000Y-53086000D02*
X64770000Y-53035200D01*
X64008000Y-52273200D02*
X64008000Y-49657000D01*
X64770000Y-53035200D02*
X64008000Y-52273200D01*
D23*
X66236351Y-68846311D02*
X66236351Y-68852551D01*
X64770000Y-68580000D02*
X66236351Y-68846311D01*
X67470595Y-68546405D02*
X69519149Y-68546405D01*
X66929000Y-69088000D02*
X67470595Y-68546405D01*
X66471800Y-69088000D02*
X66929000Y-69088000D01*
X66236351Y-68852551D02*
X66471800Y-69088000D01*
X67356348Y-66218193D02*
X69519149Y-68546405D01*
X65278000Y-54610000D02*
X65980637Y-55045829D01*
X65980637Y-55045829D02*
X67310000Y-55524400D01*
X67310000Y-55524400D02*
X67356348Y-66218193D01*
X69544942Y-68571412D02*
X69544942Y-68520612D01*
X69544942Y-68520612D02*
X70231000Y-64770000D01*
X69519149Y-68546405D02*
X69544156Y-68571412D01*
X69544156Y-68571412D02*
X69544942Y-68571412D01*
X64770000Y-68610000D02*
X64770000Y-68580000D01*
X64770000Y-54610000D02*
X65278000Y-54610000D01*
X64770000Y-68580000D02*
X64770000Y-68610000D01*
X64770000Y-53060600D02*
X64770000Y-53086000D01*
X64770000Y-53086000D02*
X64770000Y-54610000D01*
X64770000Y-68610000D02*
X64770000Y-68580000D01*
X64770000Y-68580000D02*
X63500000Y-68580000D01*
X63500000Y-68580000D02*
X62865000Y-69215000D01*
X60325000Y-47625000D02*
X60325000Y-43815000D01*
D24*
X80770000Y-68610000D02*
X80770000Y-76857320D01*
X80770000Y-76857320D02*
X79598520Y-78028800D01*
D23*
X60452000Y-55245000D02*
X63373000Y-52324000D01*
X63373000Y-49276000D02*
X63449200Y-45720000D01*
X63449200Y-45720000D02*
X67792600Y-45618400D01*
X67792600Y-45618400D02*
X67945000Y-44704000D01*
X63373000Y-52324000D02*
X63373000Y-49276000D01*
X60325000Y-55245000D02*
X60452000Y-55245000D01*
X67945000Y-44704000D02*
X67945000Y-43815000D01*
X80770000Y-68610000D02*
X80772000Y-68580000D01*
X78867000Y-67310000D02*
X79121000Y-67564000D01*
X79121000Y-67564000D02*
X79756000Y-67564000D01*
X79756000Y-67564000D02*
X80772000Y-68580000D01*
X80772000Y-68580000D02*
X80770000Y-68610000D01*
X60325000Y-66675000D02*
X58928000Y-65278000D01*
X58928000Y-65278000D02*
X58928000Y-58293000D01*
X58928000Y-58293000D02*
X60325000Y-56896000D01*
X60325000Y-56896000D02*
X60325000Y-55245000D01*
X74676000Y-64770000D02*
X74676000Y-59690000D01*
D24*
X62992000Y-76784200D02*
X65328800Y-76784200D01*
X66583560Y-75529440D02*
X74597260Y-75529440D01*
X65328800Y-76784200D02*
X66583560Y-75529440D01*
X63398400Y-74308400D02*
X60692600Y-74308400D01*
X60452000Y-74549000D02*
X60452000Y-76784200D01*
X60692600Y-74308400D02*
X60452000Y-74549000D01*
D23*
X63398400Y-74308400D02*
X62776800Y-74308400D01*
X62592200Y-56610000D02*
X62407800Y-56794400D01*
X62407800Y-56794400D02*
X62407800Y-65836800D01*
X62592200Y-56610000D02*
X64770000Y-56610000D01*
X62179200Y-66065400D02*
X62407800Y-65836800D01*
X62179200Y-73710800D02*
X62179200Y-66065400D01*
X62776800Y-74308400D02*
X62179200Y-73710800D01*
X63385000Y-74295000D02*
X63398400Y-74308400D01*
X80770000Y-54610000D02*
X78663800Y-54610000D01*
X77063600Y-53009800D02*
X67386200Y-53009800D01*
X78663800Y-54610000D02*
X77063600Y-53009800D01*
D24*
X67106800Y-54076600D02*
X66929000Y-53898800D01*
X77114400Y-54076600D02*
X67106800Y-54076600D01*
X79647800Y-56610000D02*
X77114400Y-54076600D01*
X80770000Y-56610000D02*
X79647800Y-56610000D01*
D23*
X64770000Y-58610000D02*
X65723000Y-58610000D01*
X65723000Y-58610000D02*
X66548000Y-57785000D01*
X64770000Y-64610000D02*
X63990200Y-64610000D01*
X63990200Y-64610000D02*
X62941200Y-65659000D01*
X62941200Y-65659000D02*
X62941200Y-67995800D01*
X63957200Y-71628000D02*
X63398400Y-72186800D01*
X63398400Y-72186800D02*
X63398400Y-72808400D01*
X64770000Y-62610000D02*
X63981600Y-62610000D01*
X63981600Y-62610000D02*
X63068200Y-61696600D01*
X66548000Y-67894200D02*
X66548000Y-68148200D01*
X66548000Y-68148200D02*
X66675000Y-68275200D01*
X64770000Y-66610000D02*
X66587600Y-66610000D01*
X66548000Y-66649600D02*
X66548000Y-67894200D01*
X66548000Y-67894200D02*
X66548000Y-67919600D01*
X66587600Y-66610000D02*
X66548000Y-66649600D01*
X64770000Y-60610000D02*
X65664600Y-60610000D01*
X65664600Y-60610000D02*
X66598800Y-61544200D01*
X66598800Y-61544200D02*
X66624200Y-61544200D01*
X78963000Y-60610000D02*
X80770000Y-60610000D01*
X78079600Y-61493400D02*
X78963000Y-60610000D01*
X79171800Y-61722000D02*
X80059800Y-62610000D01*
X80059800Y-62610000D02*
X80770000Y-62610000D01*
M02*
