G04 #@! TF.FileFunction,Copper,L2,Bot,Signal*
%FSLAX46Y46*%
G04 Gerber Fmt 4.6, Leading zero omitted, Abs format (unit mm)*
G04 Created by KiCad (PCBNEW 4.0.2-4+6225~38~ubuntu14.04.1-stable) date Thu 31 Mar 2016 02:11:22 CEST*
%MOMM*%
G01*
G04 APERTURE LIST*
%ADD10C,0.100000*%
%ADD11R,1.727200X2.032000*%
%ADD12O,1.727200X2.032000*%
%ADD13R,2.032000X2.032000*%
%ADD14O,2.032000X2.032000*%
%ADD15R,2.032000X1.727200*%
%ADD16O,2.032000X1.727200*%
%ADD17R,0.900000X0.500000*%
%ADD18R,0.500000X0.900000*%
%ADD19C,2.499360*%
%ADD20R,1.300000X1.550000*%
%ADD21C,0.685800*%
%ADD22C,0.250000*%
%ADD23C,0.254000*%
G04 APERTURE END LIST*
D10*
D11*
X60325000Y-43815000D03*
D12*
X62865000Y-43815000D03*
X65405000Y-43815000D03*
X67945000Y-43815000D03*
D13*
X62992000Y-76784200D03*
D14*
X60452000Y-76784200D03*
D13*
X60325000Y-69215000D03*
D14*
X60325000Y-66675000D03*
D15*
X60325000Y-47625000D03*
D16*
X60325000Y-50165000D03*
X60325000Y-52705000D03*
X60325000Y-55245000D03*
D13*
X60325000Y-62230000D03*
D14*
X60325000Y-59690000D03*
D17*
X66675000Y-56630000D03*
X66675000Y-55130000D03*
X63500000Y-46875000D03*
X63500000Y-48375000D03*
X66675000Y-62750000D03*
X66675000Y-64250000D03*
X67945000Y-73545000D03*
X67945000Y-75045000D03*
X66675000Y-60440000D03*
X66675000Y-58940000D03*
X78105000Y-58940000D03*
X78105000Y-60440000D03*
D18*
X76720000Y-62865000D03*
X78220000Y-62865000D03*
D19*
X74597260Y-75529440D03*
X79598520Y-78028800D03*
X69596000Y-78028800D03*
D20*
X74640000Y-58255000D03*
X70140000Y-58255000D03*
X70140000Y-66205000D03*
X74640000Y-66205000D03*
D21*
X65532000Y-53467000D03*
X64008000Y-49657000D03*
X70231000Y-64770000D03*
X62865000Y-69215000D03*
X78867000Y-67310000D03*
X74676000Y-64770000D03*
X74676000Y-59690000D03*
X67386200Y-53009800D03*
X66929000Y-53898800D03*
X66548000Y-57785000D03*
X62941200Y-67995800D03*
X63957200Y-71628000D03*
X63068200Y-61696600D03*
X66675000Y-68275200D03*
X66624200Y-61544200D03*
X78079600Y-61493400D03*
X79171800Y-61722000D03*
D22*
X66675000Y-55118000D02*
X65532000Y-53975000D01*
X65532000Y-53467000D02*
X65532000Y-53975000D01*
X63500000Y-49149000D02*
X64008000Y-49657000D01*
X63500000Y-49149000D02*
X63500000Y-48375000D01*
X70231000Y-64770000D02*
X72136000Y-62865000D01*
X72136000Y-62865000D02*
X76720000Y-62865000D01*
X62865000Y-69215000D02*
X60325000Y-69215000D01*
X60325000Y-47625000D02*
X61087000Y-48387000D01*
X61087000Y-48387000D02*
X63500000Y-48387000D01*
X63500000Y-48387000D02*
X63500000Y-48375000D01*
X66675000Y-55118000D02*
X66675000Y-55130000D01*
X63474563Y-45897763D02*
X63474563Y-46849563D01*
X63474563Y-46849563D02*
X63500000Y-46875000D01*
X62865000Y-43815000D02*
X62865000Y-45077740D01*
X78638400Y-53492400D02*
X78105000Y-54025800D01*
X80416400Y-53492400D02*
X78638400Y-53492400D01*
X81127600Y-52781200D02*
X80416400Y-53492400D01*
X81127600Y-46278800D02*
X81127600Y-52781200D01*
X80721200Y-45872400D02*
X81127600Y-46278800D01*
X63449200Y-45897800D02*
X63474563Y-45897763D01*
X63474563Y-45897763D02*
X80721200Y-45872400D01*
X78105000Y-54025800D02*
X78105000Y-58940000D01*
X62865000Y-45077740D02*
X63449200Y-45897800D01*
X60325000Y-66675000D02*
X60960000Y-67310000D01*
X60960000Y-67310000D02*
X71120000Y-67310000D01*
X71120000Y-67310000D02*
X72263000Y-66167000D01*
X72263000Y-66167000D02*
X74676000Y-66167000D01*
X74676000Y-66167000D02*
X74640000Y-66205000D01*
X74640000Y-66205000D02*
X74676000Y-66167000D01*
X74676000Y-66167000D02*
X75819000Y-67310000D01*
X75819000Y-67310000D02*
X78867000Y-67310000D01*
X74640000Y-66205000D02*
X74676000Y-66167000D01*
X74676000Y-66167000D02*
X74676000Y-64770000D01*
X74676000Y-59690000D02*
X74676000Y-58293000D01*
X74676000Y-58293000D02*
X74640000Y-58255000D01*
X62001400Y-50165000D02*
X60325000Y-50165000D01*
X64109600Y-52273200D02*
X62001400Y-50165000D01*
X66649600Y-52273200D02*
X64109600Y-52273200D01*
X67386200Y-53009800D02*
X66649600Y-52273200D01*
D23*
X66497200Y-53467000D02*
X66497200Y-53263800D01*
X66929000Y-53898800D02*
X66497200Y-53467000D01*
X66014600Y-52781200D02*
X60401200Y-52781200D01*
X66497200Y-53263800D02*
X66014600Y-52781200D01*
X60401200Y-52781200D02*
X60325000Y-52705000D01*
D22*
X66675000Y-64250000D02*
X64148400Y-64250000D01*
X62128400Y-62230000D02*
X60325000Y-62230000D01*
X64148400Y-64250000D02*
X62128400Y-62230000D01*
X66675000Y-58940000D02*
X61075000Y-58940000D01*
X61075000Y-58940000D02*
X60325000Y-59690000D01*
X66548000Y-57785000D02*
X66675000Y-57658000D01*
X66675000Y-57658000D02*
X66675000Y-56630000D01*
X62941200Y-67995800D02*
X64033400Y-69088000D01*
X64033400Y-69088000D02*
X64033400Y-71551800D01*
X64033400Y-71551800D02*
X63957200Y-71628000D01*
X63068200Y-61696600D02*
X64121600Y-62750000D01*
X64121600Y-62750000D02*
X66675000Y-62750000D01*
X66421000Y-72021000D02*
X67945000Y-73545000D01*
X66421000Y-68529200D02*
X66421000Y-72021000D01*
X66675000Y-68275200D02*
X66421000Y-68529200D01*
X68580000Y-78105000D02*
X68580000Y-75680000D01*
X68580000Y-75680000D02*
X67945000Y-75045000D01*
X66624200Y-61544200D02*
X66675000Y-61493400D01*
X66675000Y-61493400D02*
X66675000Y-60440000D01*
X78105000Y-60440000D02*
X78105000Y-61468000D01*
X78105000Y-61468000D02*
X78079600Y-61493400D01*
X70140000Y-58255000D02*
X70140000Y-63946600D01*
X69088000Y-65153000D02*
X70140000Y-66205000D01*
X69088000Y-64998600D02*
X69088000Y-65153000D01*
X70140000Y-63946600D02*
X69088000Y-64998600D01*
X78220000Y-62865000D02*
X78220000Y-63334200D01*
X71412200Y-66205000D02*
X70140000Y-66205000D01*
X73482200Y-64135000D02*
X71412200Y-66205000D01*
X77419200Y-64135000D02*
X73482200Y-64135000D01*
X78220000Y-63334200D02*
X77419200Y-64135000D01*
X78220000Y-62865000D02*
X78220000Y-62673800D01*
X78220000Y-62673800D02*
X79171800Y-61722000D01*
M02*
